<?xml version="1.0" standalone="no"?><!DOCTYPE svg PUBLIC "-//W3C//DTD SVG 1.1//EN" "http://www.w3.org/Graphics/SVG/1.1/DTD/svg11.dtd"><svg t="1624240962210" class="icon" viewBox="0 0 1024 1024" version="1.1" xmlns="http://www.w3.org/2000/svg" p-id="1486" xmlns:xlink="http://www.w3.org/1999/xlink" width="200" height="200"><defs><style type="text/css"></style></defs><path d="M516.5056 50.0224c-251.2384 0-454.912 203.6736-454.912 454.912 0 251.2384 203.6736 454.912 454.912 454.912 251.2384 0 454.912-203.6736 454.912-454.912 0-251.2384-203.6736-454.912-454.912-454.912z m30.72 738.1504c0 16.9472-13.7728 30.72-30.72 30.72s-30.72-13.7728-30.72-30.72v-35.9424c0-16.9472 13.7728-30.72 30.72-30.72s30.72 13.7728 30.72 30.72v35.9424z m0-210.8928v74.5984c0 16.9472-13.7728 30.72-30.72 30.72s-30.72-13.7728-30.72-30.72v-83.6096c0-26.1632 19.712-48.0768 45.824-50.8928 73.8816-8.0384 127.744-72.6528 122.624-147.0976-4.7104-68.1984-59.6992-123.1872-127.8976-127.8976-38.8096-2.6112-75.776 10.3936-104.0384 36.7616-28.3136 26.4192-43.8784 62.2592-43.8784 100.9664 0 16.9472-13.7728 30.72-30.72 30.72s-30.72-13.7728-30.72-30.72c0-55.0912 23.0912-108.2368 63.3856-145.8688 40.8576-38.144 94.1568-57.088 150.1696-53.1456 98.6112 6.8096 178.1248 86.3232 184.9344 184.9344 7.2192 104.4992-66.0992 195.5328-168.2432 211.2512z" fill="#FF623E" p-id="1487"></path></svg>