<?xml version="1.0" standalone="no"?><!DOCTYPE svg PUBLIC "-//W3C//DTD SVG 1.1//EN" "http://www.w3.org/Graphics/SVG/1.1/DTD/svg11.dtd"><svg t="1624241339196" class="icon" viewBox="0 0 1024 1024" version="1.1" xmlns="http://www.w3.org/2000/svg" p-id="1974" xmlns:xlink="http://www.w3.org/1999/xlink" width="200" height="200"><defs><style type="text/css"></style></defs><path d="M804.352 76.5952H220.5184c-50.8928 0-92.16 41.2672-92.16 92.16v697.6512c0 50.8928 41.2672 92.16 92.16 92.16H804.352c50.8928 0 92.16-41.2672 92.16-92.16V168.7552c0-50.8928-41.2672-92.16-92.16-92.16zM403.4048 781.5168c0 16.9472-13.7728 30.72-30.72 30.72H279.8592c-16.9472 0-30.72-13.7728-30.72-30.72v-92.8256c0-16.9472 13.7728-30.72 30.72-30.72h92.8256c16.9472 0 30.72 13.7728 30.72 30.72v92.8256z m0-223.1296c0 16.9472-13.7728 30.72-30.72 30.72H279.8592c-16.9472 0-30.72-13.7728-30.72-30.72V465.6128c0-16.9472 13.7728-30.72 30.72-30.72h92.8256c16.9472 0 30.72 13.7728 30.72 30.72v92.7744z m0-223.0784c0 16.9472-13.7728 30.72-30.72 30.72H279.8592c-16.9472 0-30.72-13.7728-30.72-30.72V242.4832c0-16.9472 13.7728-30.72 30.72-30.72h92.8256c16.9472 0 30.72 13.7728 30.72 30.72v92.8256z m361.8816 425.3696h-252.8768c-14.1312 0-25.6-11.4688-25.6-25.6s11.4688-25.6 25.6-25.6h252.8768c14.1312 0 25.6 11.4688 25.6 25.6s-11.4688 25.6-25.6 25.6z m0-217.4976h-252.8768c-14.1312 0-25.6-11.4688-25.6-25.6s11.4688-25.6 25.6-25.6h252.8768c14.1312 0 25.6 11.4688 25.6 25.6s-11.4688 25.6-25.6 25.6z m0-239.1552h-252.8768c-14.1312 0-25.6-11.4688-25.6-25.6s11.4688-25.6 25.6-25.6h252.8768c14.1312 0 25.6 11.4688 25.6 25.6s-11.4688 25.6-25.6 25.6z" fill="#FF623E" p-id="1975"></path></svg>