<?xml version="1.0" standalone="no"?><!DOCTYPE svg PUBLIC "-//W3C//DTD SVG 1.1//EN" "http://www.w3.org/Graphics/SVG/1.1/DTD/svg11.dtd"><svg t="1624240972848" class="icon" viewBox="0 0 1024 1024" version="1.1" xmlns="http://www.w3.org/2000/svg" p-id="1678" xmlns:xlink="http://www.w3.org/1999/xlink" width="200" height="200"><defs><style type="text/css"></style></defs><path d="M935.0656 820.2752L886.8352 200.192c-3.84-49.152-44.8512-87.0912-94.1568-87.0912H236.3904c-49.3056 0-90.3168 37.9392-94.1568 87.0912l-48.2304 620.1344c-4.2496 54.8864 39.1168 101.7344 94.1568 101.7344h652.8c54.9888 0 98.3552-46.8992 94.1056-101.7856z m-196.096-506.5728c0 123.7504-100.7104 224.4608-224.4608 224.4608S290.0992 437.4528 290.0992 313.7024v-40.8576c0-14.4896 11.7248-26.2144 26.2144-26.2144s26.2144 11.7248 26.2144 26.2144v40.8576c0 94.8224 77.1584 171.9808 171.9808 171.9808s171.9808-77.1584 171.9808-171.9808v-40.8576c0-14.4896 11.7248-26.2144 26.2144-26.2144s26.2144 11.7248 26.2144 26.2144v40.8576z" fill="#FF623E" p-id="1679"></path></svg>